<svg xmlns="http://www.w3.org/2000/svg" width="242" height="242" viewBox="0 0 242 242"><g transform="translate(-176 -123)"><circle cx="121" cy="121" r="121" transform="translate(176 123)" fill="#fff"/><path d="M-80.97-17.13v4.44h7.17v3.87h-7.17v4.71h8.07V0H-86.1V-21.21h13.2v4.08Zm30.06,6.48a11.25,11.25,0,0,1-1.335,5.535,9.351,9.351,0,0,1-3.84,3.765A12.246,12.246,0,0,1-61.98,0h-8.01V-21.21h8.01a12.453,12.453,0,0,1,5.91,1.32,9.209,9.209,0,0,1,3.825,3.72A11.165,11.165,0,0,1-50.91-10.65ZM-62.43-4.59a6.483,6.483,0,0,0,4.665-1.59A5.887,5.887,0,0,0-56.1-10.65a5.887,5.887,0,0,0-1.665-4.47,6.483,6.483,0,0,0-4.665-1.59h-2.43V-4.59Zm19.41-16.62V-8.97a4.822,4.822,0,0,0,.945,3.21A3.4,3.4,0,0,0-39.33-4.65a3.4,3.4,0,0,0,2.745-1.11,4.822,4.822,0,0,0,.945-3.21V-21.21h5.13V-8.97a10.08,10.08,0,0,1-1.17,5.055,7.606,7.606,0,0,1-3.2,3.09A9.908,9.908,0,0,1-39.45.21a9.569,9.569,0,0,1-4.5-1.02A7.244,7.244,0,0,1-47.01-3.9a10.614,10.614,0,0,1-1.11-5.07V-21.21Zm25.62-.21a10.375,10.375,0,0,1,6.7,2.13A9.746,9.746,0,0,1-7.26-13.53h-5.43a4.982,4.982,0,0,0-1.845-2.31,5.157,5.157,0,0,0-2.955-.84,4.5,4.5,0,0,0-3.63,1.65,6.653,6.653,0,0,0-1.38,4.41,6.592,6.592,0,0,0,1.38,4.395A4.518,4.518,0,0,0-17.49-4.59a5.157,5.157,0,0,0,2.955-.84A5,5,0,0,0-12.69-7.71h5.43A9.8,9.8,0,0,1-10.7-1.965,10.327,10.327,0,0,1-17.4.18a10.579,10.579,0,0,1-5.43-1.365A9.265,9.265,0,0,1-26.445-5.01a12.014,12.014,0,0,1-1.275-5.61,12.014,12.014,0,0,1,1.275-5.61,9.265,9.265,0,0,1,3.615-3.825A10.579,10.579,0,0,1-17.4-21.42ZM8.76-3.87H.81L-.51,0h-5.4L1.86-21.06H7.77L15.54,0H10.08ZM7.44-7.77,4.8-15.57,2.13-7.77ZM32.76-21.21v4.08H27V0H21.84V-17.13h-5.7v-4.08Zm7.29,0V0H34.92V-21.21Zm13.62-.33a10.792,10.792,0,0,1,5.445,1.4,10.163,10.163,0,0,1,3.855,3.87,11.1,11.1,0,0,1,1.41,5.6,11.091,11.091,0,0,1-1.425,5.61,10.241,10.241,0,0,1-3.87,3.885A10.733,10.733,0,0,1,53.67.21a10.733,10.733,0,0,1-5.415-1.4,10.241,10.241,0,0,1-3.87-3.885,11.091,11.091,0,0,1-1.425-5.61,11.009,11.009,0,0,1,1.425-5.6,10.271,10.271,0,0,1,3.87-3.87A10.733,10.733,0,0,1,53.67-21.54Zm0,4.77a5.143,5.143,0,0,0-4,1.635A6.377,6.377,0,0,0,48.18-10.68a6.389,6.389,0,0,0,1.485,4.44,5.12,5.12,0,0,0,4,1.65,5.131,5.131,0,0,0,3.99-1.65,6.349,6.349,0,0,0,1.5-4.44,6.389,6.389,0,0,0-1.485-4.44A5.12,5.12,0,0,0,53.67-16.77ZM86.1,0H80.97L72.39-13.02V0H67.26V-21.21h5.13L80.97-8.07V-21.21H86.1Z" transform="translate(297.1 254.54)"/></g></svg>