<svg xmlns="http://www.w3.org/2000/svg" width="180" height="180" viewBox="0 0 180 180"><g transform="translate(-206 -152)"><circle cx="90" cy="90" r="90" transform="translate(206 152)" fill="#fff"/><path d="M-36.645-21.21V0h-5.16V-8.85h-8.04V0h-5.13V-21.21h5.13v8.22h8.04v-8.22Zm8.67,4.08v4.44h7.17v3.87h-7.17v4.71h8.07V0h-13.2V-21.21h13.2v4.08ZM-3.855-3.87h-7.95L-13.125,0h-5.4l7.77-21.06h5.91L2.925,0h-5.46Zm-1.32-3.9-2.64-7.8-2.67,7.8Zm15.21,3.84h6.84V0H4.9V-21.21h5.13Zm24.45-17.28v4.08h-5.76V0h-5.16V-17.13h-5.7v-4.08Zm20.49,0V0h-5.16V-8.85h-8.04V0h-5.13V-21.21h5.13v8.22h8.04v-8.22Z" transform="translate(295.975 252.21)"/></g></svg>