<svg xmlns="http://www.w3.org/2000/svg" width="144" height="144" viewBox="0 0 144 144"><g transform="translate(-198 -148)"><circle cx="72" cy="72" r="72" transform="translate(198 148)" fill="#fff"/><path d="M-24.06-21.21V-6.72a6.906,6.906,0,0,1-1.815,5.13A6.824,6.824,0,0,1-30.9.21a7.622,7.622,0,0,1-5.52-1.965A7.489,7.489,0,0,1-38.46-7.41h5.07q0,2.97,2.25,2.97,1.95,0,1.95-2.28V-21.21Zm13.47-.33a10.792,10.792,0,0,1,5.445,1.4,10.163,10.163,0,0,1,3.855,3.87,11.1,11.1,0,0,1,1.41,5.6A11.091,11.091,0,0,1-1.305-5.07a10.241,10.241,0,0,1-3.87,3.885A10.733,10.733,0,0,1-10.59.21a10.733,10.733,0,0,1-5.415-1.4,10.241,10.241,0,0,1-3.87-3.885A11.091,11.091,0,0,1-21.3-10.68a11.009,11.009,0,0,1,1.425-5.6,10.271,10.271,0,0,1,3.87-3.87A10.733,10.733,0,0,1-10.59-21.54Zm0,4.77A5.143,5.143,0,0,0-14.6-15.135,6.377,6.377,0,0,0-16.08-10.68,6.389,6.389,0,0,0-14.6-6.24,5.12,5.12,0,0,0-10.59-4.59,5.131,5.131,0,0,0-6.6-6.24a6.349,6.349,0,0,0,1.5-4.44,6.389,6.389,0,0,0-1.485-4.44A5.12,5.12,0,0,0-10.59-16.77Zm26.31,5.85a5.311,5.311,0,0,1,3.045,1.86A5.092,5.092,0,0,1,19.89-5.79a5.269,5.269,0,0,1-1.815,4.26A7.864,7.864,0,0,1,12.87,0H3V-21.21h9.63a7.863,7.863,0,0,1,5.01,1.41,4.841,4.841,0,0,1,1.77,4.02,4.953,4.953,0,0,1-1.02,3.195A4.7,4.7,0,0,1,15.72-10.92ZM8.13-12.54h3.36q2.67,0,2.67-2.28T11.43-17.1H8.13Zm3.66,8.37q2.85,0,2.85-2.34A2.229,2.229,0,0,0,13.89-8.3a3.171,3.171,0,0,0-2.13-.645H8.13v4.77Zm26.04-1.8a5.848,5.848,0,0,1-.855,3.09,6.03,6.03,0,0,1-2.52,2.25A8.879,8.879,0,0,1,30.42.21a9.5,9.5,0,0,1-5.88-1.74,6.3,6.3,0,0,1-2.52-4.86h5.46a2.882,2.882,0,0,0,.855,1.89,2.63,2.63,0,0,0,1.875.69,2.176,2.176,0,0,0,1.56-.54,1.89,1.89,0,0,0,.57-1.44,1.859,1.859,0,0,0-.525-1.35,4.116,4.116,0,0,0-1.305-.885q-.78-.345-2.16-.825a26.519,26.519,0,0,1-3.285-1.335,6.05,6.05,0,0,1-2.19-1.92,5.556,5.556,0,0,1-.915-3.315,5.582,5.582,0,0,1,.96-3.27,6.1,6.1,0,0,1,2.655-2.115,9.684,9.684,0,0,1,3.885-.735,8.709,8.709,0,0,1,5.625,1.68,6.41,6.41,0,0,1,2.355,4.62H31.89a2.846,2.846,0,0,0-.765-1.665,2.25,2.25,0,0,0-1.665-.615,2.145,2.145,0,0,0-1.455.48,1.763,1.763,0,0,0-.555,1.41,1.791,1.791,0,0,0,.495,1.275,3.772,3.772,0,0,0,1.245.855q.75.33,2.16.84A23.742,23.742,0,0,1,34.68-11.3,6.37,6.37,0,0,1,36.9-9.33,5.614,5.614,0,0,1,37.83-5.97Z" transform="translate(270.46 230.54)"/></g></svg>