<svg xmlns="http://www.w3.org/2000/svg" width="533.725" height="486.11" viewBox="0 0 533.725 486.11"><path d="M69.375-27.195V0H55.13Q37,0,26.918-8.972T16.835-38.665V-76.59H2.96v-26.64H16.835v-25.345H48.47v25.345H69.19v26.64H48.47v38.48q0,6.105,2.5,8.51t8.418,2.405Zm83.25-77.145q17.76,0,28.212,11.84T191.29-59.94V0H159.655V-56.24q0-10.36-5.457-16.187t-14.523-5.827q-9.62,0-15.262,6.105T118.77-54.76V0H87.135V-136.9H118.77v52.54A34.052,34.052,0,0,1,132-98.975,38.8,38.8,0,0,1,152.625-104.34Zm157.62,49.95a43.637,43.637,0,0,1-.925,8.51h-71.6q.555,11.655,5.92,16.742a19.093,19.093,0,0,0,13.69,5.088,18.711,18.711,0,0,0,11.655-3.515A16.414,16.414,0,0,0,275.1-36.63H308.58a43.752,43.752,0,0,1-8.88,19.517A47.329,47.329,0,0,1,282.31-3.608a55.062,55.062,0,0,1-23.495,4.9q-15.17,0-26.917-6.383A45.6,45.6,0,0,1,213.49-23.5q-6.66-12.025-6.66-28.12,0-16.28,6.568-28.213A45.008,45.008,0,0,1,231.8-98.143a56.017,56.017,0,0,1,27.01-6.382q15.355,0,27.01,6.29a44.436,44.436,0,0,1,18.037,17.667Q310.245-69.19,310.245-54.39ZM278.24-59.2q.185-10.175-5.457-15.263a20.089,20.089,0,0,0-13.967-5.087,20.716,20.716,0,0,0-14.43,5.18q-5.735,5.18-6.475,15.17ZM161.875,46.77,135.42,150H100.085L81.4,80.81,62.53,150H27.195L.74,46.77H32.375l13.69,74.37,19.24-74.37h33.67l19.795,74.555L132.46,46.77Zm59.755-1.295A58.05,58.05,0,0,1,249.1,51.857a46.791,46.791,0,0,1,19.055,18.408Q275.1,82.29,275.1,98.385t-6.938,28.12A46.791,46.791,0,0,1,249.1,144.913a62.516,62.516,0,0,1-55.038,0A46.645,46.645,0,0,1,174.918,126.5q-6.937-12.025-6.937-28.12t6.938-28.12a46.645,46.645,0,0,1,19.147-18.408A58.6,58.6,0,0,1,221.63,45.475Zm0,27.38a20.158,20.158,0,0,0-15.262,6.568q-6.2,6.568-6.2,18.962t6.2,18.87a20.3,20.3,0,0,0,15.262,6.475,20,20,0,0,0,15.17-6.475q6.1-6.475,6.1-18.87t-6.1-18.962A19.869,19.869,0,0,0,221.63,72.855ZM323.2,66.195A44.89,44.89,0,0,1,338.458,51.21a38.962,38.962,0,0,1,20.258-5.55V79.515H349.65q-12.58,0-19.518,5.365T323.2,103.01V150H291.56V46.77H323.2Zm86.4-20.72q19.61,0,31.358,9.805t14.707,25.9h-29.6a16.4,16.4,0,0,0-5.827-9.9,17.7,17.7,0,0,0-11.378-3.608q-5.365,0-8.14,2.313a8.07,8.07,0,0,0-2.775,6.568q0,4.81,5.087,7.215t16,4.81a158.913,158.913,0,0,1,19.425,5.642,32.046,32.046,0,0,1,13.135,9.343q5.55,6.475,5.55,17.39a26.669,26.669,0,0,1-4.81,15.725,31.67,31.67,0,0,1-13.875,10.73q-9.065,3.885-21.46,3.885-20.905,0-33.485-9.25T368.15,115.59h30.525a13.737,13.737,0,0,0,5.643,10.175q4.9,3.515,12.672,3.515,5.365,0,8.14-2.5a8.413,8.413,0,0,0,2.775-6.568,7.9,7.9,0,0,0-5.087-7.677q-5.087-2.312-16.557-4.9a132.4,132.4,0,0,1-18.87-5.18,31.153,31.153,0,0,1-12.765-8.973q-5.365-6.2-5.365-16.927a27.624,27.624,0,0,1,10.545-22.478Q390.35,45.475,409.59,45.475Zm123.58,77.33V150H518.925q-18.13,0-28.212-8.973T480.63,111.335V73.41H466.755V46.77H480.63V21.425h31.635V46.77h20.72V73.41h-20.72v38.48q0,6.1,2.5,8.51t8.417,2.405ZM34.78,196.77l24.79,63.27L82.7,196.77H117.66L53.28,349.21H18.5l24.235-53.1L-.555,196.77Zm191.475,48.84a43.639,43.639,0,0,1-.925,8.51h-71.6q.555,11.655,5.92,16.742a19.093,19.093,0,0,0,13.69,5.088A18.711,18.711,0,0,0,185,272.435a16.414,16.414,0,0,0,6.105-9.065H224.59a43.752,43.752,0,0,1-8.88,19.518,47.329,47.329,0,0,1-17.39,13.5,55.062,55.062,0,0,1-23.495,4.9q-15.17,0-26.918-6.383A45.6,45.6,0,0,1,129.5,276.505q-6.66-12.025-6.66-28.12,0-16.28,6.567-28.213a45.009,45.009,0,0,1,18.408-18.315,56.017,56.017,0,0,1,27.01-6.382q15.355,0,27.01,6.29a44.436,44.436,0,0,1,18.037,17.667Q226.255,230.81,226.255,245.61ZM194.25,240.8q.185-10.175-5.457-15.262a20.089,20.089,0,0,0-13.967-5.087,20.716,20.716,0,0,0-14.43,5.18q-5.735,5.18-6.475,15.17Zm87.69-45.325q11.84,0,20.35,5.365a32.253,32.253,0,0,1,12.58,14.615V196.77h31.45V300H314.87V281.315a32.253,32.253,0,0,1-12.58,14.615q-8.51,5.365-20.35,5.365a41.809,41.809,0,0,1-22.848-6.383,43.666,43.666,0,0,1-15.91-18.408q-5.827-12.025-5.827-28.12,0-16.28,5.827-28.213a43.771,43.771,0,0,1,15.91-18.315A41.809,41.809,0,0,1,281.94,195.475Zm10.175,27.75q-10.175,0-16.372,6.66t-6.2,18.5q0,11.84,6.2,18.5t16.372,6.66a21.387,21.387,0,0,0,16.372-6.845q6.383-6.845,6.383-18.315,0-11.655-6.383-18.407A21.53,21.53,0,0,0,292.115,223.225Zm107.67-7.03a44.89,44.89,0,0,1,15.263-14.985,38.962,38.962,0,0,1,20.258-5.55v33.855H426.24q-12.58,0-19.518,5.365t-6.937,18.13V300H368.15V196.77h31.635Zm76.035,52.17V300H443.075V268.365Z" transform="translate(0.555 136.9)" fill="#fff"/></svg>