<svg xmlns="http://www.w3.org/2000/svg" width="176" height="176" viewBox="0 0 176 176"><g transform="translate(-206 -152)"><circle cx="88" cy="88" r="88" transform="translate(206 152)" fill="#fff"/><path d="M-29.31-21.06V0h-5.13V-13.17L-39,0h-4.44l-4.59-13.2V0h-5.13V-21.06h6.27l5.73,14.67,5.61-14.67Zm13.62-.48a10.792,10.792,0,0,1,5.445,1.4,10.163,10.163,0,0,1,3.855,3.87,11.1,11.1,0,0,1,1.41,5.6A11.091,11.091,0,0,1-6.4-5.07a10.241,10.241,0,0,1-3.87,3.885A10.733,10.733,0,0,1-15.69.21a10.733,10.733,0,0,1-5.415-1.4,10.241,10.241,0,0,1-3.87-3.885A11.091,11.091,0,0,1-26.4-10.68a11.009,11.009,0,0,1,1.425-5.6,10.271,10.271,0,0,1,3.87-3.87A10.733,10.733,0,0,1-15.69-21.54Zm0,4.77a5.143,5.143,0,0,0-4,1.635A6.377,6.377,0,0,0-21.18-10.68a6.389,6.389,0,0,0,1.485,4.44,5.12,5.12,0,0,0,4,1.65A5.131,5.131,0,0,0-11.7-6.24a6.349,6.349,0,0,0,1.5-4.44,6.389,6.389,0,0,0-1.485-4.44A5.12,5.12,0,0,0-15.69-16.77ZM16.74,0H11.61L3.03-13.02V0H-2.1V-21.21H3.03L11.61-8.07V-21.21h5.13Zm8.67-17.13v4.44h7.17v3.87H25.41v4.71h8.07V0H20.28V-21.21h13.2v4.08Zm29.31-4.08L47.37-7.05V0H42.21V-7.05L34.86-21.21h5.88l4.08,8.64,4.08-8.64Z" transform="translate(293.16 250.54)"/></g></svg>