<svg xmlns="http://www.w3.org/2000/svg" width="179.878" height="180.293" viewBox="0 0 179.878 180.293"><g transform="translate(-163.292 -205.964)"><g transform="translate(163.292 205.964)"><path d="M271.082,229.024l-5.354-4.566-.84.3,2.06,5.747-3.68,1.319-5.456-15.218,6.285-2.253a7.207,7.207,0,0,1,3.28-.471,4.588,4.588,0,0,1,2.487,1.039,5.214,5.214,0,0,1,1.515,2.263,4.7,4.7,0,0,1,.1,3.148,4.967,4.967,0,0,1-2.087,2.546l5.761,4.688Zm-7.1-6.784,2.281-.818a2.441,2.441,0,0,0,1.441-1.063,1.984,1.984,0,0,0,0-1.616,2.016,2.016,0,0,0-1.037-1.232,2.345,2.345,0,0,0-1.788.058l-2.282.818Z" transform="translate(-203.78 -209.34)" fill="#1a1818"/><path d="M289.957,210.812l.574,3.335,5.386-.927.5,2.907-5.385.927.609,3.538,6.062-1.044.532,3.087-9.915,1.707-2.743-15.932,9.915-1.707.528,3.065Z" transform="translate(-215.672 -206.281)" fill="#1a1818"/><path d="M314.089,216.5l.093,5.67-3.91.063-.262-16.164,6.333-.1a6.155,6.155,0,0,1,4.413,1.358,5.056,5.056,0,0,1,1.571,3.828,5.311,5.311,0,0,1-.631,2.7,4.68,4.68,0,0,1-1.97,1.885,7.055,7.055,0,0,1-3.213.727Zm4.26-5.284q-.034-2.126-2.389-2.088l-1.989.032.069,4.207,1.989-.032Q318.382,213.3,318.349,211.216Z" transform="translate(-226.138 -205.964)" fill="#1a1818"/><path d="M338.485,220.451l5.148.824-.473,2.958-9.009-1.442,2.555-15.963,3.861.618Z" transform="translate(-236.479 -206.334)" fill="#1a1818"/><path d="M361.52,227.824l-5.718-2.007-1.926,2.45-3.884-1.363,10.9-13.186,4.25,1.492.273,17.107-3.927-1.378Zm.035-3.138.07-6.276-3.889,4.936Z" transform="translate(-243.265 -209.286)" fill="#1a1818"/><path d="M401.208,229.735l-10.389,6.32-2.788,4.594-3.362-2.04,2.788-4.594.81-12.133,3.831,2.325-.758,7.243,6.076-4.017Z" transform="translate(-258.118 -212.783)" fill="#1a1818"/><path d="M421.726,275.535l2.7-6.5-.545-.706-4.833,3.73-2.39-3.1,12.8-9.877,4.079,5.286a7.2,7.2,0,0,1,1.458,2.976,4.58,4.58,0,0,1-.223,2.685,5.211,5.211,0,0,1-1.686,2.139,4.7,4.7,0,0,1-2.965,1.061,4.965,4.965,0,0,1-3.065-1.2l-2.686,6.925Zm4.269-8.84,1.481,1.918a2.442,2.442,0,0,0,1.455,1.044,1.986,1.986,0,0,0,1.539-.494,2.019,2.019,0,0,0,.852-1.366,2.349,2.349,0,0,0-.607-1.684l-1.481-1.919Z" transform="translate(-271.819 -228.719)" fill="#1a1818"/><path d="M444.494,287.62,441.5,289.2l2.547,4.836-2.61,1.374-2.547-4.836-3.177,1.673,2.866,5.442-2.772,1.46-4.688-8.9,14.3-7.533,4.688,8.9-2.752,1.449Z" transform="translate(-278.015 -238.839)" fill="#1a1818"/><path d="M447.056,312.2l-5.395,1.75-1.206-3.72,15.377-4.989,1.954,6.025a6.15,6.15,0,0,1,0,4.617,5.057,5.057,0,0,1-3.2,2.625,5.313,5.313,0,0,1-2.764.188,4.677,4.677,0,0,1-2.379-1.331,7.043,7.043,0,0,1-1.636-2.859Zm6.3,2.524q2.024-.657,1.3-2.9l-.614-1.892-4,1.3.614,1.892Q451.376,315.368,453.355,314.727Z" transform="translate(-282.014 -248.491)" fill="#1a1818"/><path d="M450.808,338.219l.787,5.154-2.961.452-1.376-9.02,15.981-2.439.589,3.866Z" transform="translate(-284.928 -260.109)" fill="#1a1818"/><path d="M452.509,363.622l.15-6.057-2.923-1.079.1-4.114,15.9,6.317-.111,4.5-16.193,5.523.1-4.161Zm3-.932,5.993-1.864-5.893-2.181Z" transform="translate(-285.86 -268.677)" fill="#1a1818"/><path d="M460.046,401.465l-9.221-7.928-5.231-1.232.9-3.828,5.23,1.232,11.79-2.978-1.028,4.363-7.123,1.517,5.7,4.537Z" transform="translate(-284.216 -283.395)" fill="#1a1818"/><path d="M422.965,434.8l7.012.578.506-.735-5.031-3.46,2.216-3.221,13.319,9.162-3.784,5.5a7.221,7.221,0,0,1-2.387,2.3,4.587,4.587,0,0,1-2.625.608,5.207,5.207,0,0,1-2.551-.951,4.693,4.693,0,0,1-1.917-2.5,4.968,4.968,0,0,1,.206-3.286l-7.414-.438Zm9.723,1.359-1.374,2a2.443,2.443,0,0,0-.548,1.7,1.985,1.985,0,0,0,.942,1.314,2.017,2.017,0,0,0,1.561.394,2.35,2.35,0,0,0,1.418-1.092l1.374-2Z" transform="translate(-273.473 -301.055)" fill="#1a1818"/><path d="M420.2,459.62l-2.419-2.367-3.822,3.907-2.108-2.063,3.822-3.907L413.1,452.68l-4.3,4.4-2.239-2.191,7.035-7.192L425.154,459l-7.036,7.192-2.223-2.175Z" transform="translate(-267.496 -309.509)" fill="#1a1818"/><path d="M401.24,469.026l-3.328-4.592,3.166-2.295,9.487,13.09-5.128,3.717a6.15,6.15,0,0,1-4.394,1.419,5.057,5.057,0,0,1-3.483-2.234,5.317,5.317,0,0,1-1.031-2.571,4.68,4.68,0,0,1,.533-2.674,7.057,7.057,0,0,1,2.215-2.438Zm-.458,6.77q1.248,1.723,3.156.34l1.61-1.167-2.469-3.407-1.61,1.167Q399.561,474.111,400.782,475.8Z" transform="translate(-263.188 -315.696)" fill="#1a1818"/><path d="M376.786,480.037l-4.658,2.341-1.345-2.676,8.152-4.1,7.26,14.445L382.7,491.8Z" transform="translate(-252.17 -321.464)" fill="#1a1818"/><path d="M349.345,489.217l5.812-1.714.13-3.114,3.948-1.164L358.1,500.3l-4.321,1.274L343.554,487.85l3.991-1.177Zm1.806,2.566,3.612,5.133.27-6.278Z" transform="translate(-240.507 -324.728)" fill="#1a1818"/><path d="M320.088,508.712l4.729-11.2-.425-5.356,3.921-.312.425,5.356,6.439,10.315-4.467.355-3.621-6.319-2.579,6.811Z" transform="translate(-230.455 -328.419)" fill="#1a1818"/><path d="M274.214,485.068l1.613,6.85.855.254,1.741-5.851,3.748,1.115-4.609,15.5-6.4-1.9a7.21,7.21,0,0,1-2.923-1.561,4.586,4.586,0,0,1-1.389-2.309,5.211,5.211,0,0,1,.118-2.721,4.694,4.694,0,0,1,1.785-2.594,4.968,4.968,0,0,1,3.189-.816l-1.869-7.189Zm1.7,9.668-2.323-.691a2.445,2.445,0,0,0-1.79,0,1.987,1.987,0,0,0-.96,1.3,2.015,2.015,0,0,0,.107,1.606,2.346,2.346,0,0,0,1.476,1.012l2.323.691Z" transform="translate(-207.595 -324.99)" fill="#1a1818"/><path d="M249.148,489.326l1.51-3.028-4.89-2.44,1.317-2.64,4.891,2.44,1.6-3.212-5.5-2.746,1.4-2.8,9,4.491-7.217,14.467-9-4.492,1.388-2.782Z" transform="translate(-197.116 -321.16)" fill="#1a1818"/><path d="M232.915,474.044l3.353-4.573,3.153,2.312-9.56,13.036-5.108-3.745a6.154,6.154,0,0,1-2.7-3.749,5.056,5.056,0,0,1,1.062-4,5.312,5.312,0,0,1,2.133-1.768,4.681,4.681,0,0,1,2.709-.31,7.048,7.048,0,0,1,3,1.363Zm-6.587,1.635q-1.258,1.714.641,3.107l1.6,1.176,2.488-3.393-1.6-1.176Q227.558,474,226.328,475.679Z" transform="translate(-188.431 -318.837)" fill="#1a1818"/><path d="M218.137,453.535l-3.657-3.716,2.135-2.1,6.4,6.5L211.492,465.56l-2.742-2.787Z" transform="translate(-182.764 -309.519)" fill="#1a1818"/><path d="M199.063,430.387l3.424,5,3-.837,2.326,3.4-16.591,4.184-2.545-3.716,9.9-13.957,2.352,3.434Zm-1.884,2.51-3.768,5.02,6.055-1.681Z" transform="translate(-174.166 -299.555)" fill="#1a1818"/><path d="M170.16,410.635l12.116,1.042,4.964-2.058,1.506,3.633-4.964,2.058-7.824,9.309-1.717-4.14,4.892-5.395-7.274-.35Z" transform="translate(-166.234 -293.199)" fill="#1a1818"/><path d="M179.42,358.965,173.4,362.6l.02.891,6.1-.138.088,3.909-16.162.365-.15-6.675a7.206,7.206,0,0,1,.589-3.261,4.586,4.586,0,0,1,1.773-2.03,5.2,5.2,0,0,1,2.625-.723,4.7,4.7,0,0,1,3.017.9,4.967,4.967,0,0,1,1.755,2.785l6.269-3.984Zm-8.679,4.588-.055-2.423a2.44,2.44,0,0,0-.553-1.7,1.984,1.984,0,0,0-1.532-.514,2.017,2.017,0,0,0-1.5.594,2.348,2.348,0,0,0-.51,1.716l.055,2.423Z" transform="translate(-163.292 -269.651)" fill="#1a1818"/><path d="M167.438,337.368l3.347.5.808-5.4,2.917.436-.808,5.4,3.551.531.91-6.083,3.1.464-1.488,9.951-15.989-2.392,1.489-9.95,3.076.46Z" transform="translate(-163.503 -259.448)" fill="#1a1818"/><path d="M179.272,315.3l5.384,1.781-1.228,3.712-15.348-5.079,1.989-6.013a6.152,6.152,0,0,1,2.736-3.719,5.055,5.055,0,0,1,4.132-.222,5.312,5.312,0,0,1,2.339,1.485,4.675,4.675,0,0,1,1.13,2.481,7.049,7.049,0,0,1-.372,3.273Zm-3.585-5.762q-2.019-.668-2.759,1.567L172.3,313l3.994,1.322.625-1.889Q177.663,310.194,175.688,309.541Z" transform="translate(-165.343 -248.571)" fill="#1a1818"/><path d="M191.272,296.968l2.416-4.621,2.655,1.388-4.227,8.085-14.326-7.49,1.812-3.465Z" transform="translate(-169.502 -242.332)" fill="#1a1818"/><path d="M207.553,271.453l-3.712,4.789,1.715,2.6-2.522,3.253-9.059-14.514,2.759-3.561,16.316,5.153-2.55,3.289Zm-2.966-1.026-5.931-2.052,3.452,5.251Z" transform="translate(-176.435 -230.834)" fill="#1a1818"/><path d="M220.117,234.929l2.735,11.849,3.485,4.09-2.994,2.551-3.485-4.09-11.264-4.582,3.412-2.907,6.637,3-1.9-7.03Z" transform="translate(-182.697 -218.371)" fill="#1a1818"/></g></g></svg>